HIERARCHY
ROOT hip
{
	OFFSET 0.000000 0.000000 0.000000 
	CHANNELS 6 Xposition Yposition Zposition Xrotation Zrotation Yrotation
	JOINT abdomen
	{
		OFFSET 0.000000 3.402643 0.000000 
		CHANNELS 3 Xrotation Zrotation Yrotation
		JOINT chest
		{
			OFFSET 0.000000 8.438565 -0.680529 
			CHANNELS 3 Xrotation Zrotation Yrotation
			JOINT neck
			{
				OFFSET 0.000000 10.207942 -0.272212 
				CHANNELS 3 Xrotation Zrotation Yrotation
				JOINT head
				{
					OFFSET 0.000000 3.130431 0.000000 
					CHANNELS 3 Xrotation Zrotation Yrotation
					End Site
					{
						OFFSET 0.000000 3.130435 0.000000 
					}
				}
			}
			JOINT lCollar
			{
				OFFSET 3.470700 6.669187 -0.816635 
				CHANNELS 3 Yrotation Zrotation Xrotation
				JOINT lShldr
				{
					OFFSET 3.198488 0.000000 0.000000 
					CHANNELS 3 Zrotation Yrotation Xrotation
					JOINT lForeArm
					{
						OFFSET 10.139888 0.000000 0.000000 
						CHANNELS 3 Yrotation Zrotation Xrotation
						JOINT lHand
						{
							OFFSET 8.370511 0.000000 0.000000 
							CHANNELS 3 Zrotation Yrotation Xrotation
							End Site
							{
								OFFSET 4.083176 0.000000 0.000000 
							}
						}
					}
				}
			}
			JOINT rCollar
			{
				OFFSET -3.470700 6.669187 -0.816635 
				CHANNELS 3 Yrotation Zrotation Xrotation
				JOINT rShldr
				{
					OFFSET -3.198488 0.000000 0.000000 
					CHANNELS 3 Zrotation Yrotation Xrotation
					JOINT rForeArm
					{
						OFFSET -10.139888 0.000000 0.000000 
						CHANNELS 3 Yrotation Zrotation Xrotation
						JOINT rHand
						{
							OFFSET -8.370511 0.000000 0.000000 
							CHANNELS 3 Zrotation Yrotation Xrotation
							End Site
							{
								OFFSET -4.083176 0.000000 0.000000 
							}
						}
					}
				}
			}
		}
	}
	JOINT lThigh
	{
		OFFSET 5.308129 -1.633274 1.361059 
		CHANNELS 3 Xrotation Zrotation Yrotation
		JOINT lShin
		{
			OFFSET -2.041588 -20.007561 0.000000 
			CHANNELS 3 Xrotation Zrotation Yrotation
			JOINT lFoot
			{
				OFFSET 0.000000 -19.190928 -1.224953 
				CHANNELS 3 Xrotation Yrotation Zrotation
				End Site
				{
					OFFSET 0.000000 -2.449906 4.627600 
				}
			}
		}
	}
	JOINT rThigh
	{
		OFFSET -5.308129 -1.633274 1.361059 
		CHANNELS 3 Xrotation Zrotation Yrotation
		JOINT rShin
		{
			OFFSET 2.041588 -20.007561 0.000000 
			CHANNELS 3 Xrotation Zrotation Yrotation
			JOINT rFoot
			{
				OFFSET 0.000000 -19.190928 -1.224953 
				CHANNELS 3 Xrotation Yrotation Zrotation
				End Site
				{
					OFFSET 0.000000 -2.449906 4.627600 
				}
			}
		}
	}
}
MOTION
Frames: 13
Frame Time: 0.033333
-23.182793 39.768021 -40.972374 -7.266261 0.755602 158.419296 0.000000 0.000000 0.000000 38.370243 15.454107 -9.647004 -8.603516 0.000000 0.000000 -16.887159 9.859436 -53.270329 -2.957607 -0.090307 -0.002318 -49.260689 -38.364101 -17.045008 -88.096870 -44.279194 -16.071035 39.750584 -13.744582 -8.837831 2.957607 0.090307 -0.002334 43.645138 27.399502 -6.029200 78.300079 33.156712 -2.538492 -58.961811 34.691040 -3.243260 -10.145872 40.371529 11.461056 61.548561 -1.411481 -4.871790 -28.859175 5.680952 -20.344151 -50.106266 -41.376331 10.306720 46.378937 4.397680 12.052639 -17.743322 21.761423 34.823589 
-23.529955 39.645653 -41.114677 -8.154954 0.725016 156.390259 0.000000 0.000000 0.000000 35.726734 19.196018 -18.381605 -8.603516 0.000000 0.000000 -15.309553 10.764235 -49.439922 -2.957607 -0.090307 -0.002318 -50.577911 -45.819206 -7.862108 -89.613480 -44.883667 -16.569984 41.251888 -12.519440 -7.032128 2.957607 0.090307 -0.002334 44.155319 16.800087 -9.567526 80.814949 33.920006 -3.893026 -67.431175 37.336964 -8.844172 -9.121324 40.552044 13.444249 62.384163 -1.384530 -4.757548 -28.747082 5.972492 -19.680038 -51.541924 -40.253349 10.652318 45.773907 4.544304 11.942384 -18.458193 22.448757 35.526299 
-23.760410 39.489182 -41.100399 -9.101999 0.559275 155.213135 0.000000 0.000000 0.000000 32.827904 21.492502 -26.299288 -8.603516 0.000000 0.000000 -13.705043 11.517941 -46.323490 -2.957607 -0.090307 -0.002318 -54.127110 -50.820004 2.237974 -90.214340 -44.670269 -17.204842 42.345470 -11.348255 -6.375004 2.957607 0.090307 -0.002334 46.297096 7.597871 -12.010736 83.235321 34.225605 -5.557514 -75.435394 38.882725 -13.398579 -8.994433 40.655823 14.736234 62.936184 -1.404282 -4.651412 -28.545380 5.988214 -19.147182 -52.922710 -39.723137 10.390791 45.522907 4.541327 11.793516 -19.067997 23.235289 36.150284 
-23.899776 39.338375 -40.923988 -9.922059 0.346304 154.841766 0.000000 0.000000 0.000000 30.278578 22.589050 -32.191730 -8.603516 0.000000 0.000000 -12.533157 11.866255 -43.753445 -2.957607 -0.090307 -0.002318 -58.857914 -53.706387 11.612429 -91.110191 -44.958126 -17.831541 43.018597 -10.859684 -6.000021 2.957607 0.090307 -0.002334 49.089691 0.284346 -13.310266 85.421181 34.339558 -6.903764 -81.317551 40.278351 -16.111416 -9.571157 40.763695 15.040188 63.409767 -1.423841 -4.550351 -28.788305 5.904740 -18.920341 -53.905170 -39.686958 9.447940 45.315464 4.290367 11.657593 -19.097446 24.179647 36.451077 
-23.914053 39.235950 -40.605381 -10.351578 0.096067 155.460968 0.000000 0.000000 0.000000 29.753090 22.928183 -34.495384 -8.603516 0.000000 0.000000 -12.635984 11.400328 -40.963615 -2.957607 -0.090307 -0.002318 -62.528522 -55.604218 17.059414 -91.463425 -45.695110 -18.009245 42.051849 -11.579069 -5.410274 2.957607 0.090307 -0.002334 52.275070 -4.411365 -14.293266 86.929993 33.963676 -7.822007 -85.265671 41.803474 -17.751226 -11.015913 40.779110 14.145355 63.289078 -1.531322 -4.402638 -28.688400 5.692847 -18.743490 -54.184204 -40.231571 8.238996 45.249146 3.984586 11.474296 -18.989443 24.732485 36.514320 
-23.751915 39.153465 -40.067535 -10.156307 0.192252 157.113998 0.000000 0.000000 0.000000 30.887655 23.070923 -33.955265 -8.603516 0.000000 0.000000 -13.393904 9.940075 -37.464619 -2.957607 -0.090307 -0.002318 -65.559937 -56.392368 19.814735 -90.392792 -45.690044 -17.461802 41.333965 -12.228200 -4.819571 2.957607 0.090307 -0.002334 55.202477 -6.561841 -15.244005 86.992889 33.185234 -8.272349 -87.357704 43.327888 -18.629740 -12.656496 40.807278 12.412901 62.826008 -1.658013 -4.251791 -28.403879 5.310774 -18.438688 -53.196865 -41.246357 6.708211 45.505260 3.840858 11.670642 -18.971228 24.486803 36.273720 
-23.379148 39.102257 -39.390434 -9.482746 0.471977 159.862579 0.000000 0.000000 0.000000 32.618759 23.010254 -31.195595 -8.603516 0.000000 0.000000 -14.189830 7.669606 -32.467743 -2.957607 -0.090307 -0.002318 -67.268974 -55.434998 19.575512 -88.218849 -44.941574 -16.464483 40.783794 -13.215928 -4.638877 2.957607 0.090307 -0.002334 56.328430 -6.063946 -15.321957 86.347183 32.002544 -8.585463 -86.634674 44.750198 -18.359974 -14.939934 40.794010 9.839707 62.007046 -1.733788 -4.179989 -27.902708 4.603307 -18.166210 -50.985039 -42.684620 4.521111 45.943066 3.655396 12.057379 -18.903397 23.653767 35.756985 
-22.793032 39.048210 -38.596634 -8.399593 0.946767 163.756714 0.000000 0.000000 0.000000 34.958740 22.537882 -26.589609 -8.603516 0.000000 0.000000 -14.667836 5.349663 -25.683962 -2.957607 -0.090307 -0.002318 -65.963615 -52.622520 14.645623 -88.327286 -45.818493 -16.645311 41.143993 -14.381317 -4.891240 2.957607 0.090307 -0.002334 56.015408 -3.274173 -14.955717 85.890030 31.565773 -8.652867 -83.635353 45.557926 -16.189272 -18.161585 40.852856 6.392887 60.842915 -1.762938 -4.433288 -26.851761 3.505493 -18.111725 -47.386940 -44.194569 1.730547 46.598534 3.515775 12.304049 -18.634439 22.273077 34.647541 
-21.979294 39.002663 -37.754345 -6.916483 1.512356 168.605698 0.000000 0.000000 0.000000 37.799965 21.330595 -20.512003 -8.603516 0.000000 0.000000 -15.420366 2.765529 -16.808159 -2.957607 -0.090307 -0.002318 -62.571056 -48.208839 6.412695 -87.758347 -45.861568 -16.548441 40.445206 -16.734552 -5.661819 2.957607 0.090307 -0.002334 54.823799 1.347440 -13.294310 86.084869 32.204716 -7.941542 -80.369423 45.303810 -12.147667 -22.000273 40.729294 2.328092 59.542599 -1.665292 -4.917174 -25.944929 2.190585 -18.570189 -42.750893 -45.904945 -1.660256 47.487686 3.459879 12.794736 -18.466488 20.167021 33.091755 
-20.923759 38.977055 -36.986149 174.801880 178.113266 -6.021131 0.000000 0.000000 0.000000 40.993568 19.438005 -12.940420 -8.603516 0.000000 0.000000 -16.867252 -0.696508 -6.035444 -2.957607 -0.090307 -0.002318 -58.940796 -42.448620 -2.645899 -87.229172 -45.314224 -16.087797 39.899239 -19.202412 -7.052447 2.957607 0.090307 -0.002334 53.083946 7.213589 -10.739925 85.815170 32.077034 -7.403392 -74.683372 45.775005 -7.945838 -26.099930 40.112839 -1.946075 57.879398 -1.693993 -4.636492 -24.742079 -0.005541 -19.909678 -37.457470 -47.465954 -5.081378 48.599926 3.489164 13.270531 -18.587517 17.333500 31.308002 
-19.666214 38.960056 -36.365814 176.443283 178.060379 -0.393905 0.000000 0.000000 0.000000 44.832230 16.437372 -3.945627 -8.603516 0.000000 0.000000 -18.483103 -4.601985 4.946882 -2.957607 -0.090307 -0.002318 -56.934780 -35.540321 -10.581410 -87.896461 -45.185814 -15.945877 39.940899 -20.767702 -8.966789 2.957607 0.090307 -0.002334 51.514549 13.188985 -8.523098 86.116661 32.108067 -7.193831 -68.996834 45.775749 -3.863467 -30.170107 39.242764 -5.735855 55.916523 -1.810878 -4.516389 -23.356173 -2.447862 -21.462244 -32.301311 -48.596237 -8.285670 50.281769 3.242387 13.670921 -19.212343 13.836558 29.463421 
-18.047228 38.951447 -35.976055 177.664658 178.038742 6.306797 0.000000 0.000000 0.000000 48.768814 11.814360 6.176952 -8.603516 0.000000 0.000000 -19.472393 -7.941504 14.291720 -2.957607 -0.090307 -0.002318 -57.368732 -28.724556 -15.732376 -87.777237 -44.362061 -16.699795 40.779808 -21.500769 -11.257517 2.957607 0.090307 -0.002334 49.878624 20.060860 -5.546032 87.026520 32.591553 -7.409100 -63.291000 44.131897 0.282661 -35.147800 38.050880 -9.834299 53.979935 -2.055001 -4.708423 -21.862608 -5.339140 -23.562836 -26.299191 -49.355343 -12.112677 52.424183 3.206765 14.167882 -20.010502 9.613688 26.936329 
-16.351536 38.942947 -35.865128 -1.534112 1.971950 -166.937546 0.000000 0.000000 0.000000 50.717560 6.326069 14.449801 -8.603516 0.000000 0.000000 -20.039955 -10.256907 21.863434 -2.957607 -0.090307 -0.002318 -58.768566 -21.884703 -19.924540 -89.042793 -44.769325 -18.204651 42.947727 -21.346161 -13.635354 2.957607 0.090307 -0.002334 48.902802 26.981384 -2.076773 88.292015 33.093010 -7.830206 -58.697826 41.549282 4.036824 -40.363796 36.490513 -13.754422 52.129490 -2.359483 -4.878547 -20.299198 -8.735537 -25.833149 -20.458374 -49.590435 -16.135571 54.498154 3.137147 14.354366 -21.005541 5.760039 24.413271 
